<svg width="80" height="80" viewBox="0 0 80 80" fill="none" xmlns="http://www.w3.org/2000/svg">
<g clip-path="url(#clip0_721_916)">
<rect width="80" height="80" rx="40" fill="url(#paint0_linear_721_916)"/>
<path d="M39.9787 -0.800293C17.902 -0.800293 0 17.4036 0 39.861C0 57.8265 11.4551 73.0683 27.3399 78.4449C29.3379 78.8213 30.0714 77.5628 30.0714 76.4889C30.0714 75.5192 30.0343 72.3161 30.0171 68.9184C18.895 71.3782 16.5481 64.1209 16.5481 64.1209C14.7295 59.4209 12.1092 58.1712 12.1092 58.1712C8.48194 55.6475 12.3826 55.6994 12.3826 55.6994C16.3972 55.9855 18.511 59.8896 18.511 59.8896C22.0767 66.1059 27.8635 64.3087 30.1449 63.2698C30.5037 60.6424 31.5398 58.8472 32.6831 57.8325C23.8033 56.8043 14.4687 53.3177 14.4687 37.7372C14.4687 33.2979 16.0304 29.6706 18.5878 26.823C18.1727 25.7982 16.8043 21.6631 18.9751 16.0623C18.9751 16.0623 22.3323 14.9694 29.9721 20.2303C33.1611 19.3293 36.5812 18.8775 39.9787 18.862C43.3762 18.8775 46.7989 19.3293 49.9939 20.2303C57.6245 14.9694 60.977 16.0623 60.977 16.0623C63.1531 21.6631 61.784 25.7982 61.3689 26.823C63.9323 29.6706 65.4834 33.2979 65.4834 37.7372C65.4834 53.3548 56.1309 56.7935 47.2286 57.8002C48.6626 59.062 49.9403 61.5366 49.9403 65.3302C49.9403 70.7701 49.8939 75.1489 49.8939 76.4889C49.8939 77.5709 50.6136 78.8388 52.64 78.4395C68.5162 73.0568 79.9567 57.8204 79.9567 39.861C79.9567 17.4036 62.0574 -0.800293 39.9787 -0.800293Z" fill="#B47EFF"/>
<path d="M40.0059 29.5034C43.7978 29.5034 47.1795 31.6345 48.8303 35.0062C47.1795 38.3778 43.7978 40.5089 40.0059 40.5089C36.2141 40.5089 32.8324 38.3778 31.1816 35.0062C32.8324 31.6345 36.2141 29.5034 40.0059 29.5034ZM40.0059 27.5024C35.0035 27.5024 30.7313 30.614 29.0005 35.0062C30.7313 39.3983 35.0035 42.5099 40.0059 42.5099C45.0084 42.5099 49.2805 39.3983 51.0114 35.0062C49.2805 30.614 45.0084 27.5024 40.0059 27.5024ZM40.0059 32.5049C41.3866 32.5049 42.5072 33.6255 42.5072 35.0062C42.5072 36.3868 41.3866 37.5074 40.0059 37.5074C38.6253 37.5074 37.5047 36.3868 37.5047 35.0062C37.5047 33.6255 38.6253 32.5049 40.0059 32.5049ZM40.0059 30.5039C37.5247 30.5039 35.5037 32.5249 35.5037 35.0062C35.5037 37.4874 37.5247 39.5084 40.0059 39.5084C42.4872 39.5084 44.5082 37.4874 44.5082 35.0062C44.5082 32.5249 42.4872 30.5039 40.0059 30.5039Z" fill="#36F068"/>
</g>
<rect x="1.5" y="1.5" width="77" height="77" rx="38.5" stroke="#36F068" stroke-width="3"/>
<defs>
<linearGradient id="paint0_linear_721_916" x1="40" y1="0" x2="40" y2="80" gradientUnits="userSpaceOnUse">
<stop stop-color="#1B1D28"/>
<stop offset="1" stop-color="#000614"/>
</linearGradient>
<clipPath id="clip0_721_916">
<rect width="80" height="80" rx="40" fill="white"/>
</clipPath>
</defs>
</svg>
